<svg xmlns="http://www.w3.org/2000/svg" width="20" height="20" viewBox="0 0 20 20">
  <path fill="#FFF" d="M9.87522284,0 C4.66951871,0 0.404991087,4.05062389 0,9.19786096 L5.31122995,11.4139038 C5.76114081,11.1030303 6.30516933,10.9219251 6.88983957,10.9219251 C6.94260249,10.9219251 6.9946524,10.9233511 7.0459893,10.9262032 L9.40819967,7.47094473 L9.40819967,7.42245989 C9.40819967,5.3433155 11.0844919,3.6513369 13.145098,3.6513369 C15.2057041,3.6513369 16.8819964,5.3433155 16.8819964,7.42245989 C16.8819964,9.50160426 15.2057041,11.1942959 13.145098,11.1942959 C13.1165775,11.1942959 13.0887701,11.1935829 13.0602495,11.1928699 L9.69126559,13.6178253 C9.69340466,13.6627451 9.69483062,13.7076649 9.69483062,13.7518716 C9.69483062,15.313369 8.43636361,16.5832442 6.88983957,16.5832442 C5.53226381,16.5832442 4.39643494,15.6049911 4.13975044,14.3101604 L0.340819964,12.7251337 C1.51729055,16.9226381 5.33903743,20 9.87522284,20 C15.3483065,20 19.7846702,15.5222817 19.7846702,9.99999996 C19.7846702,4.47700535 15.3483065,0 9.87522284,0 Z M6.20991087,15.1733333 L4.99279857,14.6656684 C5.20812834,15.1191443 5.58174688,15.498467 6.07729055,15.7066667 C7.14823529,16.1572905 8.38317291,15.6446345 8.8295187,14.5629946 C9.0455615,14.0396435 9.04698754,13.4621034 8.8330838,12.9373262 C8.61918007,12.412549 8.21490197,12.0032798 7.69654189,11.785098 C7.18103386,11.5690552 6.6291622,11.5768984 6.14431372,11.7615686 L7.40206773,12.2863458 C8.19208553,12.6186096 8.56570411,13.5341177 8.23629237,14.3312656 C7.90759356,15.1284135 6.99992869,15.5055972 6.20991087,15.1733333 Z M15.6352228,7.42253119 C15.6352228,6.03714794 14.5179323,4.90916221 13.1453832,4.90916221 C11.7721212,4.90916221 10.6548307,6.03714794 10.6548307,7.42253119 C10.6548307,8.80791446 11.7721212,9.93518716 13.1453832,9.93518716 C14.5179323,9.93518716 15.6352228,8.80791446 15.6352228,7.42253119 Z M11.2787166,7.41825312 C11.2787166,6.37582887 12.1165063,5.53090909 13.1489483,5.53090909 C14.1821034,5.53090909 15.019893,6.37582887 15.019893,7.41825312 C15.019893,8.46067734 14.1821034,9.30559714 13.1489483,9.30559714 C12.1165063,9.30559714 11.2787166,8.46067734 11.2787166,7.41825312 Z"/>
</svg>
