<svg width="20" height="20" viewBox="0 0 20 20" fill="none" xmlns="http://www.w3.org/2000/svg">
<path fill-rule="evenodd" clip-rule="evenodd" d="M20 10C20 15.5228 15.5228 20 10 20C4.47715 20 0 15.5228 0 10C0 4.47715 4.47715 0 10 0C15.5228 0 20 4.47715 20 10ZM16 8.63958V7.0202L16 6.41936L15.9936 6.41988C15.2129 6.41988 14.4926 6.16125 13.9141 5.72495C13.2507 5.22479 12.774 4.49114 12.6057 3.6455C12.5641 3.43658 12.5416 3.22097 12.5395 3H10.3094V9.09386L10.3067 12.4317C10.3067 13.3241 9.72558 14.0807 8.92002 14.3468C8.68625 14.424 8.43378 14.4607 8.17086 14.4462C7.83528 14.4278 7.52083 14.3265 7.24748 14.163C6.66585 13.8152 6.2715 13.1841 6.2608 12.4622C6.24394 11.3338 7.1561 10.414 8.28359 10.414C8.50615 10.414 8.71988 10.4503 8.92002 10.5163V8.85069V8.25196C8.70895 8.22071 8.49414 8.2044 8.27691 8.2044C7.04281 8.2044 5.8886 8.71736 5.06357 9.64153C4.43998 10.3399 4.06591 11.231 4.00821 12.1653C3.93258 13.3927 4.38172 14.5594 5.25273 15.4203C5.38069 15.5467 5.5151 15.664 5.65562 15.7722C6.4024 16.3469 7.31532 16.6584 8.27691 16.6584C8.49414 16.6584 8.70895 16.6424 8.92002 16.6111C9.81831 16.478 10.6471 16.0669 11.3011 15.4203C12.1048 14.6259 12.5489 13.5714 12.5537 12.449L12.5422 7.46453C12.9256 7.7603 13.3448 8.00506 13.7947 8.19501C14.4945 8.49022 15.2364 8.63986 16 8.63958Z" fill="white"/>
</svg>
